<svg xmlns="http://www.w3.org/2000/svg" viewBox="0 0 32 32" width="32" height="32">
  <style>
    .bg { fill: #f8f7f4; }
    .dot { fill: #1a1a1a; }
    @media (prefers-color-scheme: dark) {
      .bg { fill: #0a0a0a; }
      .dot { fill: #e5e5e5; }
    }
  </style>
  <rect class="bg" width="32" height="32" rx="6"/>
  <circle class="dot" cx="6" cy="4" r="1.2" opacity="0.5"/>
  <circle class="dot" cx="26" cy="4" r="1.2" opacity="0.5"/>
  <circle class="dot" cx="8" cy="6" r="1.2" opacity="0.7"/>
  <circle class="dot" cx="24" cy="6" r="1.2" opacity="0.7"/>
  <circle class="dot" cx="4" cy="8" r="1.2" opacity="0.6"/>
  <circle class="dot" cx="10" cy="8" r="1.2"/>
  <circle class="dot" cx="22" cy="8" r="1.2"/>
  <circle class="dot" cx="28" cy="8" r="1.2" opacity="0.6"/>
  <circle class="dot" cx="3" cy="11" r="1.2" opacity="0.8"/>
  <circle class="dot" cx="7" cy="11" r="1.2"/>
  <circle class="dot" cx="11" cy="11" r="1.2" opacity="0.9"/>
  <circle class="dot" cx="21" cy="11" r="1.2" opacity="0.9"/>
  <circle class="dot" cx="25" cy="11" r="1.2"/>
  <circle class="dot" cx="29" cy="11" r="1.2" opacity="0.8"/>
  <circle class="dot" cx="4" cy="14" r="1.2"/>
  <circle class="dot" cx="8" cy="14" r="1.2" opacity="0.8"/>
  <circle class="dot" cx="12" cy="14" r="1.2"/>
  <circle class="dot" cx="16" cy="14" r="1.2"/>
  <circle class="dot" cx="20" cy="14" r="1.2"/>
  <circle class="dot" cx="24" cy="14" r="1.2" opacity="0.8"/>
  <circle class="dot" cx="28" cy="14" r="1.2"/>
  <circle class="dot" cx="14" cy="12" r="1.2" opacity="0.6"/>
  <circle class="dot" cx="18" cy="12" r="1.2" opacity="0.6"/>
  <circle class="dot" cx="16" cy="16" r="1.2"/>
  <circle class="dot" cx="6" cy="17" r="1.2" opacity="0.9"/>
  <circle class="dot" cx="10" cy="17" r="1.2" opacity="0.7"/>
  <circle class="dot" cx="22" cy="17" r="1.2" opacity="0.7"/>
  <circle class="dot" cx="26" cy="17" r="1.2" opacity="0.9"/>
  <circle class="dot" cx="16" cy="18" r="1.2"/>
  <circle class="dot" cx="8" cy="20" r="1.2"/>
  <circle class="dot" cx="12" cy="20" r="1.2" opacity="0.6"/>
  <circle class="dot" cx="20" cy="20" r="1.2" opacity="0.6"/>
  <circle class="dot" cx="24" cy="20" r="1.2"/>
  <circle class="dot" cx="16" cy="20" r="1.2" opacity="0.8"/>
  <circle class="dot" cx="10" cy="23" r="1.2" opacity="0.8"/>
  <circle class="dot" cx="16" cy="22" r="1.2"/>
  <circle class="dot" cx="22" cy="23" r="1.2" opacity="0.8"/>
  <circle class="dot" cx="12" cy="25" r="1.2" opacity="0.5"/>
  <circle class="dot" cx="16" cy="24" r="1.2" opacity="0.7"/>
  <circle class="dot" cx="20" cy="25" r="1.2" opacity="0.5"/>
  <circle class="dot" cx="14" cy="27" r="1.2" opacity="0.4"/>
  <circle class="dot" cx="18" cy="27" r="1.2" opacity="0.4"/>
</svg>
